<svg width="1024" height="1024" viewBox="0 0 1024 1024" fill="none" xmlns="http://www.w3.org/2000/svg">
<path d="M202.802 532.006C202.802 544.018 197.724 554.144 187.555 562.4C177.386 570.655 164.596 574.783 149.171 574.783C135.736 574.783 123.948 571.164 113.779 563.955C103.61 556.731 96.364 547.21 92 535.391L114.328 525.539C117.594 533.795 122.356 540.22 128.627 544.816C134.885 549.411 141.733 551.709 149.185 551.709C157.172 551.709 163.841 549.934 169.193 546.357C174.546 542.793 177.222 538.569 177.222 533.699C177.222 524.879 170.689 518.412 157.625 514.285L134.762 508.382C108.811 501.626 95.8288 488.679 95.8288 469.554C95.8288 456.992 100.769 446.907 110.664 439.312C120.558 431.717 133.211 427.919 148.636 427.919C160.424 427.919 171.101 430.836 180.625 436.642C190.149 442.463 196.818 450.25 200.633 459.992L178.306 469.554C175.767 463.748 171.636 459.193 165.914 455.905C160.191 452.63 153.796 450.979 146.715 450.979C140.182 450.979 134.323 452.672 129.149 456.043C123.975 459.414 121.395 463.555 121.395 468.426C121.395 476.31 128.559 481.937 142.9 485.308L163.045 490.66C189.545 497.416 202.788 511.203 202.788 532.02L202.802 532.006Z" fill="#1A1E51"/>
<path d="M217.763 368.81H242.808V432.404L241.724 451.543H242.808C246.623 444.787 252.469 439.16 260.374 434.66C268.264 430.161 276.471 427.905 285.007 427.905C301.337 427.905 313.908 432.734 322.705 442.393C331.501 452.052 335.906 465.797 335.906 483.615V570.283H310.861V488.678C310.861 463.912 300.24 451.543 279.01 451.543C268.841 451.543 260.264 455.904 253.279 464.628C246.293 473.351 242.794 483.533 242.794 495.159V570.283H217.749V368.824L217.763 368.81Z" fill="#1A1E51"/>
<path d="M418.395 574.768C398.799 574.768 382.633 567.834 369.939 553.951C357.231 540.068 350.877 522.539 350.877 501.336C350.877 480.134 357.039 462.839 369.39 448.859C381.727 434.894 397.522 427.904 416.749 427.904C435.975 427.904 452.278 434.522 463.984 447.745C475.69 460.967 481.536 479.501 481.536 503.318L481.262 506.124H376.457C376.814 519.622 381.178 530.505 389.522 538.761C397.865 547.016 407.856 551.144 419.466 551.144C435.44 551.144 447.955 542.888 457.026 526.391L479.354 537.646C473.357 549.273 465.055 558.381 454.446 564.944C443.825 571.507 431.803 574.796 418.382 574.796L418.395 574.768ZM378.378 484.729H454.872C454.145 475.167 450.384 467.241 443.578 460.954C436.771 454.666 427.659 451.529 416.213 451.529C406.772 451.529 398.648 454.528 391.841 460.527C385.034 466.54 380.547 474.602 378.365 484.729H378.378Z" fill="#1A1E51"/>
<path d="M568.119 574.768C558.32 574.768 549.373 572.608 541.303 568.302C533.22 563.995 527.004 558.271 522.653 551.13H521.569V570.269H497.608V368.81H522.653V432.404L521.569 451.543H522.653C527.004 444.416 533.22 438.692 541.303 434.372C549.373 430.065 558.32 427.905 568.119 427.905C585.712 427.905 600.602 435.032 612.76 449.286C625.276 463.733 631.548 481.083 631.548 501.337C631.548 521.59 625.29 539.133 612.76 553.387C600.602 567.641 585.712 574.768 568.119 574.768ZM564.043 551.13C576.023 551.13 586.096 546.439 594.261 537.069C602.427 527.878 606.516 515.962 606.516 501.337C606.516 486.711 602.427 474.988 594.261 465.605C586.096 456.221 576.023 451.543 564.043 451.543C552.062 451.543 541.715 456.235 533.55 465.605C525.563 474.988 521.569 486.903 521.569 501.337C521.569 515.77 525.563 527.974 533.55 537.358C541.715 546.549 551.884 551.144 564.043 551.144V551.13Z" fill="#1A1E51"/>
<path d="M698.241 427.892C716.753 427.892 731.355 433.01 742.073 443.219C752.777 453.442 758.129 467.463 758.129 485.281V570.256H734.182V551.117H733.098C722.75 566.872 708.958 574.755 691.722 574.755C677.024 574.755 664.728 570.256 654.834 561.244C644.939 552.246 639.999 540.991 639.999 527.479C639.999 513.225 645.214 501.874 655.657 493.44C666.087 484.992 680.016 480.781 697.445 480.781C712.321 480.781 724.576 483.602 734.196 489.229V483.313C734.196 474.315 730.737 466.665 723.848 460.377C716.945 454.089 708.876 450.952 699.627 450.952C685.656 450.952 674.582 457.047 666.416 469.238L644.363 454.887C656.522 436.876 674.486 427.878 698.268 427.878L698.241 427.892ZM665.84 528.071C665.84 534.827 668.598 540.454 674.143 544.953C679.673 549.453 686.164 551.709 693.602 551.709C704.128 551.709 713.515 547.678 721.776 539.615C730.037 531.552 734.168 522.072 734.168 511.203C726.36 504.832 715.477 501.64 701.493 501.64C691.324 501.64 682.843 504.172 676.036 509.235C669.23 514.298 665.826 520.586 665.826 528.085L665.84 528.071Z" fill="#1A1E51"/>
<path d="M626.396 627.507L608.556 601.351H621.483L633.683 620.16L645.938 601.351H658.811L640.874 627.507L659.73 654.874H646.762L633.697 634.813L620.578 654.874H607.705L626.424 627.507H626.396Z" fill="#1A1E51"/>
<path d="M660.921 601.351H673.272L684.223 631.91C684.703 633.3 685.142 634.662 685.554 635.996C685.952 637.331 686.309 638.652 686.611 639.932C686.913 641.225 687.16 642.504 687.352 643.798H687.64C687.956 642.119 688.422 640.248 689.012 638.17C689.603 636.093 690.275 634.001 691.016 631.91L701.528 601.351H713.728L690.824 662.235C689.506 665.716 687.887 668.688 685.98 671.151C684.072 673.614 681.808 675.485 679.2 676.764C676.593 678.03 673.615 678.677 670.28 678.677C668.675 678.677 667.275 678.594 666.081 678.415C664.887 678.237 663.871 678.058 663.048 677.865V668.77C663.72 668.936 664.571 669.073 665.601 669.211C666.63 669.335 667.686 669.403 668.784 669.403C670.815 669.403 672.558 669.004 674.04 668.193C675.522 667.381 676.771 666.253 677.801 664.78C678.83 663.308 679.681 661.643 680.353 659.772L682.233 654.75L660.921 601.365V601.351Z" fill="#1A1E51"/>
<path d="M757.578 654.875H717.012V647.858L743.964 610.089H718.645V601.338H756.795V609.071L730.364 646.11H757.564V654.861L757.578 654.875Z" fill="#1A1E51"/>
<path d="M922.552 389.119C906.386 352.437 868.99 339.187 867.439 338.651L532.536 222.139L531.644 221.864C502.455 214.104 478.412 216.952 460.173 230.367C432.658 250.607 429.817 287.412 429.584 291.292C429.31 294.691 425.152 346.273 420.143 408.45C428.802 408.56 437.159 409.853 445.078 412.193C450.279 347.718 454.588 294.209 454.67 293.15L454.698 292.751C454.711 292.462 456.413 264.297 475.159 250.607C486.865 242.062 503.539 240.549 524.728 246.107L859.164 362.454C859.452 362.55 888.038 372.938 899.62 399.507C907.483 417.545 906.001 439.49 895.215 464.738C872.654 508.382 747.141 752.219 745.919 754.586C745.864 754.682 740.512 764.464 728.875 771.468C713.546 780.7 694.388 781.182 671.937 772.94C645.122 761.492 487.428 693.743 485.836 693.055L485.054 692.725L484.313 692.505C481.842 691.789 423.93 674.04 430.449 593.289C426.689 593.756 422.86 594.032 418.962 594.032C414.296 594.032 409.727 593.674 405.253 593.013C401.561 644.747 420.801 675.512 437.736 692.257C454.437 708.768 472.195 715.138 476.559 716.514C487.565 721.247 637.245 785.543 662.386 796.275L662.962 796.495C677.468 801.861 690.271 803.953 701.428 803.953C719.749 803.953 733.623 798.312 743.23 792.23C759.972 781.649 767.451 767.794 768.247 766.239C769.523 763.763 895.819 518.426 917.79 475.938L918.174 475.126C932.048 442.903 933.53 413.94 922.579 389.077L922.552 389.119Z" fill="url(#paint0_linear_248_377)"/>
<defs>
<linearGradient id="paint0_linear_248_377" x1="667.285" y1="217.613" x2="667.285" y2="803.994" gradientUnits="userSpaceOnUse">
<stop stop-color="#3397FF"/>
<stop offset="0.05" stop-color="#3A8EFB"/>
<stop offset="0.13" stop-color="#4F75F3"/>
<stop offset="0.23" stop-color="#704DE5"/>
<stop offset="0.35" stop-color="#9E17D2"/>
<stop offset="0.4" stop-color="#B200CA"/>
<stop offset="0.46" stop-color="#B500C4"/>
<stop offset="0.54" stop-color="#BF00B3"/>
<stop offset="0.64" stop-color="#CF0098"/>
<stop offset="0.74" stop-color="#E60073"/>
<stop offset="0.77" stop-color="#EE0066"/>
<stop offset="0.83" stop-color="#EE0364"/>
<stop offset="0.88" stop-color="#EE0D5E"/>
<stop offset="0.93" stop-color="#EE1E55"/>
<stop offset="0.97" stop-color="#EE3547"/>
<stop offset="1" stop-color="#EE4B3C"/>
</linearGradient>
</defs>
</svg>
